# xmcd CD database file
#
# Track frame offsets:
#	150
#	21250
#	46685
#	74690
#	94250
#	122970
#	139125
#	161375
#	187905
#	212198
#
# Disc length: 3112 seconds
#
# Revision: 0
# Processed by: cddbd v1.5.1PL0 Copyright (c) Steve Scherf et al.
# Submitted via: CDex 1.51
#
DISCID=8e0c260a
DTITLE=宮原学 - Manabu Miyahara
DYEAR=1999
DGENRE=Rock
TTITLE0=Rain Step
TTITLE1=雨上がりの夜空に
TTITLE2=Illusion
TTITLE3=Misty Step
TTITLE4=Silent Step
TTITLE5=ESCAPE STAIRWAY
TTITLE6=日曜日の夜は大キライ
TTITLE7=31th Emotion
TTITLE8=Stay With Blues
TTITLE9=サーカスの来ない街
EXTD=YEAR: 1999.1.25
EXTT0=
EXTT1=
EXTT2=
EXTT3=
EXTT4=
EXTT5=
EXTT6=
EXTT7=
EXTT8=
EXTT9=
PLAYORDER=
